<?xml version="1.0" encoding="utf-8"?>
<!-- Generator: Adobe Illustrator 22.1.0, SVG Export Plug-In . SVG Version: 6.00 Build 0)  -->
<svg version="1.1" id="car" xmlns="http://www.w3.org/2000/svg" xmlns:xlink="http://www.w3.org/1999/xlink" x="0px" y="0px"
	 viewBox="0 0 150 48" style="enable-background:new 0 0 150 48;" xml:space="preserve">
<style type="text/css">
	.st0{opacity:0.2;fill:#040000;}
	.st1{opacity:0.6;fill:#364B5B;}
	.st2{fill:#040000;}
	.st3{fill:#1D313E;}
	.st4{fill:#E9564D;}
	.st5{fill:#4F6477;}
	.st6{fill:#E0E4EE;}
	.st7{fill:#EFF0F7;}
	.st8{fill:#A3B0C1;}
	.st9{fill:#6A7E90;}
	.st10{opacity:0.1;fill:#270305;}
	.st11{opacity:0.1;}
	.st12{fill:#270305;}
	.st13{opacity:0.4;fill:#FFFFFF;}
	.st14{fill-rule:evenodd;clip-rule:evenodd;fill:#040000;}
	.st15{fill-rule:evenodd;clip-rule:evenodd;fill:#4F6477;}
	.st16{opacity:0.4;fill-rule:evenodd;clip-rule:evenodd;fill:#FFFFFF;}
	.st17{opacity:0.3;fill-rule:evenodd;clip-rule:evenodd;fill:#FFFFFF;}
</style>
<g>
	<path class="st0" d="M139,47.8c-0.4,0.1-0.8,0.2-1.3,0.2H15.9c-1.6,0-3.3-0.2-4.9-0.6l-9.2-2.1c-0.2,0-0.3-0.3-0.3-0.5
		c0-0.2,0.2-0.4,0.4-0.4h143.5c0.2,0,0.4,0.2,0.5,0.5c0,0.3-0.1,0.6-0.3,0.7L139,47.8z"/>
	<path class="st1" d="M131.8,46.5H19.5L9,45.2c-0.1,0-0.2-0.1-0.2-0.2c0-0.1,0.1-0.2,0.2-0.2h128.3c0.2,0,0.3,0.1,0.4,0.3
		c0,0.2-0.1,0.4-0.3,0.4L131.8,46.5z"/>
	<g>
		<path class="st2" d="M124.5,33.5c0,6.3-5.1,11.5-11.5,11.5c-6.3,0-11.5-5.1-11.5-11.5c0-6.3,5.1-11.5,11.5-11.5
			C119.3,22,124.5,27.1,124.5,33.5z"/>
		<path class="st2" d="M44.5,33.5C44.5,39.8,39.4,45,33,45c-6.3,0-11.5-5.1-11.5-11.5C21.5,27.1,26.7,22,33,22
			C39.4,22,44.5,27.1,44.5,33.5z"/>
		<polygon class="st2" points="141.6,18.9 15.6,20 3,38.3 5.6,40.7 11.8,42.2 125.8,42.2 135.9,39.7 145.9,35.8 148.4,31.8 		"/>
		<path class="st3" d="M43.9,14.3C45.1,13.7,60.1,6.1,64.5,4c3-1.4,7-2.2,7-2.2l-0.2-0.6C57,3,38.5,14.1,38.5,14.1
			S42.7,14.8,43.9,14.3z"/>
		<path class="st3" d="M128.8,10.4c-1.6-0.6-12.3-4.5-18.2-6.6c-3.9-1.4-9.1-2.2-9.1-2.2l-1.6-0.7c20.2,1.8,39.4,10.5,39.4,10.5
			S130.3,11,128.8,10.4z"/>
		<path class="st4" d="M149.9,23l-2.1-1.2l-0.2-6.8l0.7-2.4l-12.5-3.3c0,0-5.5,0.2-6.4,0.1C108.9,1.4,100,0,87.2,0
			C73.3,0,66.9,0.1,43.5,13.6c-0.8,0.5-6.6-0.3-6.6-0.3c-13,0.5-30.1,6.8-35,11.8C0.6,26.4,0,27,0,29.3s1.5,8.4,1.5,8.4
			s0.9,1.3,3.8,1.4c2.9,0.1,6.4,0.2,6.4,0.2l2.1,0l3.2,0.1v-5c0-7.3,5.9-13.2,13.2-13.2c7.3,0,13.2,5.9,13.2,13.2v5.5l61.2-0.8v-4.7
			c0-7.3,5.9-13.2,13.2-13.2c7.3,0,13.2,5.9,13.2,13.2v4.1c9.5-1.4,16.4-3.5,17.8-5.7C150.6,29.8,149.9,23,149.9,23z"/>
		<g>
			<path class="st3" d="M129.2,34.4c0,6.3-5.1,11.5-11.5,11.5c-6.3,0-11.5-5.1-11.5-11.5c0-6.3,5.1-11.5,11.5-11.5
				C124.1,22.9,129.2,28.1,129.2,34.4z"/>
			<path class="st5" d="M106.3,33.2c0.5,0,1-0.4,1.1-0.9c1-4.8,5.2-8.5,10.4-8.5s9.4,3.6,10.4,8.5c0.1,0.5,0.6,0.9,1.1,0.9h0
				c-0.6-5.8-5.5-10.3-11.4-10.3S106.9,27.4,106.3,33.2L106.3,33.2z"/>
			<path class="st2" d="M129.2,35.6c-0.5,0-1,0.4-1.1,0.9c-1,4.8-5.2,8.5-10.4,8.5c-5.1,0-9.4-3.6-10.4-8.5
				c-0.1-0.5-0.5-0.9-1.1-0.9h0c0.6,5.8,5.5,10.3,11.4,10.3C123.7,45.9,128.6,41.4,129.2,35.6L129.2,35.6z"/>
			<path class="st2" d="M111.1,33.2c0.6-3.2,3.4-5.5,6.7-5.5c3.3,0,6.1,2.4,6.7,5.5h1.3c0.4,0,0.7-0.2,0.9-0.5
				c0.2-0.3,0.3-0.7,0.2-1c-1.2-3.9-4.8-6.8-9.1-6.8c-4.3,0-7.9,2.9-9.1,6.8c-0.1,0.3,0,0.7,0.2,1c0.2,0.3,0.6,0.5,0.9,0.5H111.1z"
				/>
			<path class="st5" d="M124.4,35.7c-0.6,3.2-3.4,5.5-6.7,5.5s-6.1-2.4-6.7-5.5h-1.3c-0.4,0-0.7,0.2-0.9,0.5c-0.2,0.3-0.3,0.7-0.2,1
				c1.2,3.9,4.8,6.8,9.1,6.8c4.3,0,7.9-2.9,9.1-6.8c0.1-0.3,0-0.7-0.2-1c-0.2-0.3-0.6-0.5-0.9-0.5H124.4z"/>
			<path class="st6" d="M126.3,34.4c0,4.7-3.8,8.5-8.5,8.5s-8.5-3.8-8.5-8.5c0-4.7,3.8-8.5,8.5-8.5S126.3,29.7,126.3,34.4z"/>
			<path class="st2" d="M125.4,34.4c0,4.2-3.4,7.6-7.6,7.6s-7.6-3.4-7.6-7.6c0-4.2,3.4-7.6,7.6-7.6S125.4,30.2,125.4,34.4z"/>
			<path class="st6" d="M120.4,34.4c0,1.5-1.2,2.7-2.7,2.7c-1.5,0-2.7-1.2-2.7-2.7s1.2-2.7,2.7-2.7C119.2,31.8,120.4,33,120.4,34.4z
				"/>
			<polygon class="st7" points="125.7,33 120.1,33 122.9,28.2 120.5,26.8 117.7,31.7 114.9,26.8 112.5,28.2 115.3,33 109.7,33 
				109.7,35.8 115.3,35.8 112.5,40.7 114.9,42 117.7,37.2 120.5,42 122.9,40.7 120.1,35.8 125.7,35.8 			"/>
			<polygon class="st8" points="125.7,34.4 109.7,34.4 109.7,35.8 115.3,35.8 112.5,40.7 114.9,42 117.7,37.2 120.5,42 122.9,40.7 
				120.1,35.8 125.7,35.8 			"/>
			<circle class="st2" cx="117.7" cy="34.4" r="1.4"/>
		</g>
		<g>
			<path class="st3" d="M41.6,34.4c0,6.3-5.1,11.5-11.5,11.5c-6.3,0-11.5-5.1-11.5-11.5c0-6.3,5.1-11.5,11.5-11.5
				C36.5,22.9,41.6,28.1,41.6,34.4z"/>
			<path class="st5" d="M18.7,33.2c0.5,0,1-0.4,1.1-0.9c1-4.8,5.2-8.5,10.4-8.5c5.1,0,9.4,3.6,10.4,8.5c0.1,0.5,0.5,0.9,1.1,0.9h0
				c-0.6-5.8-5.5-10.3-11.4-10.3C24.2,22.9,19.3,27.4,18.7,33.2L18.7,33.2z"/>
			<path class="st2" d="M41.6,35.6c-0.5,0-1,0.4-1.1,0.9c-1,4.8-5.2,8.5-10.4,8.5s-9.4-3.6-10.4-8.5c-0.1-0.5-0.5-0.9-1.1-0.9h0
				c0.6,5.8,5.5,10.3,11.4,10.3C36.1,45.9,41,41.4,41.6,35.6L41.6,35.6z"/>
			<path class="st2" d="M23.5,33.2c0.6-3.2,3.4-5.5,6.7-5.5c3.3,0,6.1,2.4,6.7,5.5h1.3c0.4,0,0.7-0.2,0.9-0.5c0.2-0.3,0.3-0.7,0.2-1
				c-1.2-3.9-4.8-6.8-9.1-6.8c-4.3,0-7.9,2.9-9.1,6.8c-0.1,0.3,0,0.7,0.2,1c0.2,0.3,0.6,0.5,0.9,0.5H23.5z"/>
			<path class="st5" d="M36.8,35.7c-0.6,3.2-3.4,5.5-6.7,5.5s-6.1-2.4-6.7-5.5h-1.3c-0.4,0-0.7,0.2-0.9,0.5c-0.2,0.3-0.3,0.7-0.2,1
				c1.2,3.9,4.8,6.8,9.1,6.8c4.3,0,7.9-2.9,9.1-6.8c0.1-0.3,0-0.7-0.2-1c-0.2-0.3-0.6-0.5-0.9-0.5H36.8z"/>
			<path class="st6" d="M38.7,34.4c0,4.7-3.8,8.5-8.5,8.5s-8.5-3.8-8.5-8.5c0-4.7,3.8-8.5,8.5-8.5S38.7,29.7,38.7,34.4z"/>
			<path class="st2" d="M37.8,34.4c0,4.2-3.4,7.6-7.6,7.6s-7.6-3.4-7.6-7.6c0-4.2,3.4-7.6,7.6-7.6S37.8,30.2,37.8,34.4z"/>
			<path class="st6" d="M32.8,34.4c0,1.5-1.2,2.7-2.7,2.7c-1.5,0-2.7-1.2-2.7-2.7s1.2-2.7,2.7-2.7C31.6,31.8,32.8,33,32.8,34.4z"/>
			<polygon class="st7" points="38.1,33 32.5,33 35.3,28.2 33,26.8 30.2,31.7 27.4,26.8 25,28.2 27.8,33 22.2,33 22.2,35.8 
				27.8,35.8 25,40.7 27.4,42 30.2,37.2 33,42 35.3,40.7 32.5,35.8 38.1,35.8 			"/>
			<polygon class="st8" points="38.1,34.4 22.2,34.4 22.2,35.8 27.8,35.8 25,40.7 27.4,42 30.2,37.2 33,42 35.3,40.7 32.5,35.8 
				38.1,35.8 			"/>
			<circle class="st2" cx="30.2" cy="34.4" r="1.4"/>
		</g>
		<g>
			<path class="st9" d="M118.4,8.2C102.8,2.6,95.5,2,86.3,2C72.5,2,65.9,3.9,46.4,14.8c-0.3,0.3-0.5,2-0.5,2s48.2-2.9,67.5-4.2
				C114.7,12.5,117.6,10.3,118.4,8.2z"/>
			<path class="st2" d="M86.3,2c-0.2,0-0.3,0-0.5,0C72.4,2,65.6,4,46.4,14.8c-0.3,0.3-0.5,2-0.5,2s48.2-2.9,67.5-4.2
				c1.3-0.1,4.2-2.3,5-4.4C102.8,2.6,95.5,2,86.3,2z M113.3,12c-17.8,1.2-60.7,3.8-66.7,4.2c0.1-0.4,0.2-0.8,0.2-0.9
				C57,9.5,63.1,6.6,68.5,4.9c6-1.9,11.1-2.3,17.4-2.3c0.2,0,0.3,0,0.5,0c4.9,0,8.8,0.2,13.6,1c5,0.9,10.7,2.4,17.8,4.9
				C116.6,10.2,114.3,11.9,113.3,12z"/>
		</g>
		<g>
			<path class="st3" d="M80.4,37.1C80.3,37.1,80.3,37.1,80.4,37.1c-0.1-0.2-1-11.5,0.5-19c1.6-7.5,2.8-15.9,2.8-16
				c0-0.1,0.1-0.1,0.1-0.1c0.1,0,0.1,0.1,0.1,0.1c0,0.1-1.2,8.5-2.8,16c-1.6,7.5-0.6,18.7-0.6,18.8C80.5,37.1,80.4,37.1,80.4,37.1
				C80.4,37.1,80.4,37.1,80.4,37.1z"/>
			<path class="st3" d="M128.4,26.6C128.4,26.6,128.3,26.6,128.4,26.6c-0.1-0.1-0.1-0.1-0.1-0.2l6.5-5.5c0,0,0.1,0,0.1,0
				c0,0,0,0.1,0,0.1L128.4,26.6C128.4,26.6,128.4,26.6,128.4,26.6z"/>
			<path class="st3" d="M23.7,22.8C23.7,22.8,23.7,22.8,23.7,22.8c-2.3-0.8-3.3-1-9.1-0.8c-0.1,0-0.1,0-0.1-0.1c0-0.1,0-0.1,0.1-0.1
				c5.8-0.2,6.9,0,9.2,0.8C23.8,22.7,23.8,22.7,23.7,22.8C23.8,22.8,23.8,22.8,23.7,22.8z"/>
			<path class="st3" d="M47.4,37.9L47.4,37.9c0-0.1-1.4-5.8-2-13.2c-0.3-3.9,0.8-9.2,1-9.9l-2.9-1.1c0,0-0.1-0.1-0.1-0.1
				c0,0,0.1-0.1,0.1-0.1l3,1.2l0,0.1c0,0.1-1.3,5.8-1,10c0.6,6.9,1.8,12.3,2,13c2.1,0,45.7-0.7,48.7-1.1c2.4-0.3,4.4-4.4,5.9-7.3
				c0.4-0.7,0.7-1.5,1-2c1.5-2.6,9.5-14,10-14.7L111,5.9c0,0,0-0.1,0.1-0.1c0.1,0,0.1,0,0.1,0.1l2.2,6.8l0,0
				c-0.1,0.1-8.5,12.1-10,14.7c-0.3,0.5-0.7,1.2-1,2c-1.5,3-3.6,7.1-6.1,7.5C93.2,37.2,47.9,37.9,47.4,37.9L47.4,37.9z"/>
		</g>
		<path class="st10" d="M39.5,20.8l75.8-4.1c0,0-5.7,2.2-9.5,6.8c-1.7,2-3.1,4.5-4,6.4c-0.9,1.7-2.5,2.7-4.4,2.8l-49,1.4
			c-1.1,0-2.1-0.7-2.4-1.8c-0.5-1.6-1.1-4-1.8-5.6C42.7,22.9,39.5,20.8,39.5,20.8z"/>
		<g class="st11">
			<path class="st12" d="M130.9,34.3v4.1c8.9-1.4,15.6-3.2,17.5-5.3l-17.6,0.6C130.9,33.8,130.9,34.1,130.9,34.3z"/>
			<path class="st12" d="M17,39.3v-2L1.6,37.8c0.3,0.3,1.4,1.2,3.7,1.3c2.9,0.1,6.4,0.2,6.4,0.2l2.1,0L17,39.3z"/>
			<polygon class="st12" points="104.6,34.5 43.3,36.4 43.3,39.8 104.6,39 			"/>
		</g>
		<g>
			<path class="st2" d="M118.3,8.1c-5.4-0.5-20.5-1.8-36.2-1c-10.3,0.5-21.3,2.3-28.6,3.8c-2.2,1.2-4.5,2.5-7.1,3.9
				c-0.3,0.3-0.5,2-0.5,2s48.2-2.9,67.5-4.2C114.7,12.5,117.6,10.3,118.3,8.1C118.4,8.2,118.3,8.2,118.3,8.1z"/>
		</g>
		<path class="st13" d="M144.1,12.5c0,0-11.9,1.5-23.7,2.6c-6.7,0.6-81.6,4.8-81.6,4.8s-2.2-1.3-5.4-1.7c8.3-1,12.5-1.4,12.5-1.4
			s58.7-3.6,69.4-4.3c10.8-0.8,20.5-2,20.5-2L144.1,12.5z"/>
		<polygon class="st14" points="78.7,17.7 72.8,18 73.4,16.9 79.2,16.6 		"/>
		<polygon class="st14" points="110,15.9 104.2,16.2 104.7,15.2 110.6,14.9 		"/>
		<polygon class="st15" points="78.7,17.5 72.8,17.8 73.4,16.7 79.2,16.4 		"/>
		<polygon class="st15" points="110,15.7 104.2,16.1 104.7,15 110.6,14.7 		"/>
		<path class="st3" d="M146.8,16.6c0,0-1.4-0.7-3.2-0.5c-3.5,0.4-8.7,4.9-8.7,4.9l12.2,0.8L146.8,16.6z"/>
		<g>
			<path class="st2" d="M148.3,33.2C148.3,33.2,148.3,33.2,148.3,33.2C148.3,33.2,148.3,33.2,148.3,33.2
				C148.3,33.2,148.3,33.2,148.3,33.2z"/>
			<path class="st2" d="M147.1,34.1c0,0-0.1,0.1-0.1,0.1C147,34.2,147.1,34.1,147.1,34.1z"/>
			<path class="st2" d="M147.5,33.9c-0.1,0-0.1,0.1-0.2,0.1C147.3,34,147.4,33.9,147.5,33.9z"/>
			<path class="st2" d="M146.8,34.3C146.8,34.3,146.8,34.3,146.8,34.3C146.8,34.3,146.8,34.3,146.8,34.3
				C146.8,34.3,146.8,34.3,146.8,34.3z"/>
			<path class="st2" d="M148.2,33.3C148.2,33.3,148.2,33.4,148.2,33.3C148.2,33.4,148.2,33.3,148.2,33.3z"/>
			<path class="st2" d="M146.6,29.9c-0.6,0.6-1.4,2.2-1.9,3.3l3.8-0.1c0.1-0.1,0.2-0.2,0.3-0.4c0,0,0,0,0,0c0.6-1,0.9-2.4,1.1-4
				C148.5,29,147.1,29.4,146.6,29.9z"/>
			<path class="st2" d="M147.7,33.7C147.7,33.7,147.6,33.8,147.7,33.7C147.6,33.8,147.7,33.7,147.7,33.7z"/>
			<path class="st2" d="M147.9,33.6C147.9,33.6,147.9,33.6,147.9,33.6C147.9,33.6,147.9,33.6,147.9,33.6z"/>
		</g>
		<path class="st10" d="M19.1,21.8c0,0-3.2,2.6-5,7.8c-1.2,3.4-1.6,6-1.6,6l-10,1.1c0,0,0.3-4.3,0.6-7.8c0.8-2.5,3.2-4.1,4.5-5.1
			C10.4,21.6,19.1,21.8,19.1,21.8z"/>
		<path class="st10" d="M119,16.6c0,0,9.1,0.6,13.8,10.2c0.7,1.3,1.1,2.6,1.5,3.7c0.2,0.6,0.7,1.2,1.3,1.5c0.6,0.3,1.3,0.3,1.9,0.1
			l4.2-1.7c1.4-0.6,2.6-1.8,2.8-3.3c0.2-1.2,0.2-2.2,0.1-2.6c-0.2-1.9-1.8-1.9-5-3C135.7,16,119,16.6,119,16.6z"/>
		<path class="st6" d="M14.6,22c0,0-2.3,3.9-3.6,4.5c-4,2-7.6,2.4-7.8,2.4C2.6,26.8,3,25.5,3,25.5C5.8,23.5,10.2,22.3,14.6,22z"/>
		<path class="st2" d="M4.5,33c-1.1,1.1-1.9,3.7-1.9,3.7s5-0.3,6.1-0.8c1.5-0.7,2.3-5.5,2.3-5.5S5.5,32,4.5,33z"/>
		<path class="st13" d="M149.9,23l-2.1-1.2L134.9,21c0,0,1.8,0.8,6,1.3C146.4,22.8,149.9,23,149.9,23z"/>
		<path class="st13" d="M2.4,37.1C2.4,37.1,2.4,37.1,2.4,37.1l-0.3,0.3C2,37.4,2,37.5,2,37.6c0,0.1,0.1,0.1,0.2,0.1l9.8-0.8
			c0.3,0,0.6-0.1,0.8-0.3l0.4-0.3c0.1-0.1,0.1-0.2,0.1-0.3c0-0.1-0.1-0.2-0.3-0.2L2.4,37.1z"/>
		<ellipse class="st13" cx="117.7" cy="19" rx="3" ry="0.9"/>
		<ellipse class="st13" cx="30.2" cy="19" rx="3" ry="0.9"/>
		<polygon class="st0" points="147.5,15 148.2,12.6 139.7,13.9 		"/>
		<polygon class="st16" points="144.5,14.6 145.1,21.7 147.8,21.8 147.5,15 		"/>
		<path class="st17" d="M146.3,22.7v5.1c0,0,2.6-0.6,2.8-2.4c0.2-1.7,0.1-2.4,0.1-2.4L146.3,22.7z"/>
		<path class="st13" d="M40,15.2c0,0-2.6-0.5-3.6-0.9C24.3,14.9,9.4,20.3,3,24.5c0.1,0.4,0.3,0.6,0.5,0.8c6.7-0.6,16.4-6.2,21.8-7.4
			C29.6,16.9,32.7,16.1,40,15.2z"/>
	</g>
</g>
</svg>
