<?xml version="1.0" encoding="utf-8"?>
<!-- Generator: Adobe Illustrator 22.1.0, SVG Export Plug-In . SVG Version: 6.00 Build 0)  -->
<svg version="1.1" id="car" xmlns="http://www.w3.org/2000/svg" xmlns:xlink="http://www.w3.org/1999/xlink" x="0px" y="0px"
	 viewBox="0 0 136 48" style="enable-background:new 0 0 136 48;" xml:space="preserve">
<style type="text/css">
	.st0{fill:#6B4A4F;}
	.st1{fill:#DC4F4B;}
	.st2{fill:#FFFFFF;}
	.st3{fill:#107C79;}
</style>
<g>
	<g>
		<path class="st0" d="M2.9,31.3c-3.3,0,1.3,6,4.7,6h8.7v-0.7c0-2,0-3.3,0.7-4.7H8.2L2.9,31.3L2.9,31.3z M40.2,32
			c0.7,1.3,0.7,3.3,0.7,4.7v0.7h55.3v-0.7c0-2,0-3.3,0.7-4.7H40.2L40.2,32z M120.2,32c0.7,1.3,0.7,3.3,0.7,4.7v0.7h7.3
			c3.3,0,7.3-6,4-6h-12V32z"/>
		<path class="st1" d="M100.2,15.3C96.2,14.7,90.2,4,75.6,0h-34c-3.3,0.7-10,4-17.3,14.7c-17.3,2-18.7,0-22,15.3h16
			c2-4,6-6.7,11.3-6.7c4.7,0,9.3,2.7,11.3,6.7h58c2-4,6-6.7,11.3-6.7c4.7,0,9.3,2.7,11.3,6.7h12.7c-0.7-4.7-0.7-8-3.3-9.3
			C118.9,18,112.2,17.3,100.2,15.3L100.2,15.3z"/>
		<path class="st2" d="M30.2,15.3c2-4,4.7-8.7,8.7-11.3h18.7v11.3H30.2L30.2,15.3z M60.9,4h15.3l7.3,11.3h-22V4H60.9z"/>
		<path class="st2" d="M83.6,3.3h-4.7l8,11.3h12C96.2,14,92.2,8,83.6,3.3L83.6,3.3z"/>
		<path class="st0" d="M108.9,25.3c6,0,11.3,4.7,11.3,11.3c0,6-4.7,11.3-11.3,11.3s-11.3-4.7-11.3-11.3
			C97.6,30.7,102.9,25.3,108.9,25.3L108.9,25.3z M108.9,28.7c9.3,0,9.3,15.3,0,15.3c-4,0-7.3-3.3-7.3-7.3
			C100.9,32,104.2,28.7,108.9,28.7L108.9,28.7z"/>
		<path class="st3" d="M108.9,42.7c-3.3,0-6-2.7-6-6c0-3.3,2.7-6,6-6s6,2.7,6,6C114.9,40,112.2,42.7,108.9,42.7L108.9,42.7z"/>
		<path class="st0" d="M28.9,25.3c6,0,11.3,4.7,11.3,11.3c0,6-4.7,11.3-11.3,11.3c-6,0-11.3-4.7-11.3-11.3
			C17.6,30.7,22.2,25.3,28.9,25.3L28.9,25.3z M28.9,28.7c9.3,0,9.3,15.3,0,15.3c-4,0-7.3-3.3-7.3-7.3C20.9,32,24.2,28.7,28.9,28.7
			L28.9,28.7z"/>
		<path class="st3" d="M28.9,42.7c-3.3,0-6-2.7-6-6c0-3.3,2.7-6,6-6s6,2.7,6,6C34.9,40,32.2,42.7,28.9,42.7L28.9,42.7z"/>
	</g>
</g>
</svg>
