<svg id="destination" data-name="图层 1" xmlns="http://www.w3.org/2000/svg" viewBox="0 0 17 27"><defs><style>.cls-1{fill:#bcbcbc;}.cls-2{fill:#ffc107;}.cls-3{fill:#d8d8d8;}.cls-4{fill:#fff;}</style></defs><title>起点 副本 3</title><g id="destination"><ellipse class="cls-1" cx="8.5" cy="26.22" rx="1.25" ry="0.78"/><ellipse class="cls-2" cx="8.5" cy="26.22" rx="1" ry="0.5"/><rect class="cls-2" x="7.7" y="14.22" width="1.6" height="12"/><circle class="cls-3" cx="8.5" cy="8.85" r="8.13"/><circle class="cls-2" cx="8.5" cy="8.85" r="7.5"/><g id="终"><path class="cls-4" d="M5.26,11.52V11.1a8.6,8.6,0,0,0,2.25-.22v.36A8.78,8.78,0,0,1,5.26,11.52Zm.17-1.47V9.63A12.32,12.32,0,0,0,6.49,8.22c-.17,0-.57,0-1.2,0V7.83A5.76,5.76,0,0,0,6.43,5.66H7A5.91,5.91,0,0,1,5.76,7.83a4.32,4.32,0,0,0,.89,0h.09L7.1,7h.55A8,8,0,0,1,6,9.63,8.61,8.61,0,0,0,7.4,9.52v.39A12.37,12.37,0,0,1,5.43,10.05Zm6.3-.72a8.28,8.28,0,0,1-2.08-.75,8.74,8.74,0,0,1-2.11.75V9A9.13,9.13,0,0,0,9.23,8.3a4.41,4.41,0,0,1-1-1.08A.76.76,0,0,0,8,7.33a1.72,1.72,0,0,0-.25.14V7.1a2.44,2.44,0,0,0,1-1.44h.56a2.94,2.94,0,0,1-.2.53h2.31v.39A4.47,4.47,0,0,1,10.07,8.3,8.07,8.07,0,0,0,11.73,9Zm-.41,2.72A11.47,11.47,0,0,0,8,11.19V10.8a15.18,15.18,0,0,1,3.31.67Zm-.5-5.47H8.93a2.52,2.52,0,0,1-.58.55h.44A3.64,3.64,0,0,0,9.65,8,4,4,0,0,0,10.82,6.58ZM11,10.47a10.33,10.33,0,0,0-2.64-.59V9.49A10.58,10.58,0,0,1,11,9.94Z"/></g></g></svg>