<svg id="图层_1" data-name="图层 1" xmlns="http://www.w3.org/2000/svg" viewBox="0 0 20 20"><defs><style>.cls-1{fill:#d8d8d8;}.cls-2{fill:#ffc107;}.cls-3{fill:#fff;}</style></defs><title>终点</title><g id="ouset"><circle class="cls-1" cx="10" cy="10" r="8.13"/><circle class="cls-2" cx="10" cy="10" r="7.5"/><g id="终"><path class="cls-3" d="M6.76,12.67v-.42A9,9,0,0,0,9,12v.36A9.24,9.24,0,0,1,6.76,12.67Zm.17-1.48v-.41A10.59,10.59,0,0,0,8,9.36q-.25,0-1.2,0V9A5.65,5.65,0,0,0,7.93,6.81h.56A6,6,0,0,1,7.26,9a4.29,4.29,0,0,0,.89,0h.09c.11-.24.23-.5.36-.8h.55a7.87,7.87,0,0,1-1.69,2.64,8.53,8.53,0,0,0,1.44-.11v.39A12.48,12.48,0,0,1,6.93,11.19Zm6.31-.72a7.65,7.65,0,0,1-2.09-.75A8,8,0,0,1,9,10.47v-.36a8.24,8.24,0,0,0,1.7-.67,4.24,4.24,0,0,1-1-1.08l-.23.11-.25.14V8.25a2.5,2.5,0,0,0,1-1.44h.56a2.57,2.57,0,0,1-.2.52H13v.39a4.4,4.4,0,0,1-1.39,1.72,7.44,7.44,0,0,0,1.67.67Zm-.42,2.72a12.16,12.16,0,0,0-3.31-.86v-.39a16.45,16.45,0,0,1,3.31.67Zm-.5-5.47H10.43a2.56,2.56,0,0,1-.58.56h.44a3.64,3.64,0,0,0,.86.89A4,4,0,0,0,12.32,7.72Zm.19,3.89A10.37,10.37,0,0,0,9.88,11v-.39a10.57,10.57,0,0,1,2.63.44Z"/></g></g></svg>