<svg id="图层_1" data-name="图层 1" xmlns="http://www.w3.org/2000/svg" viewBox="0 0 20 20"><defs><style>.cls-1{fill:#d8d8d8;}.cls-2{fill:#009688;}.cls-3{fill:#fff;}</style></defs><title>起点</title><g id="ouset"><circle class="cls-1" cx="10" cy="10" r="8.13"/><circle class="cls-2" cx="10" cy="10" r="7.5"/><g id="起"><path class="cls-3" d="M6.67,7.8V7.39H8v-1h.63v1H9.8V7.8H8.58V9H10v.43H8.89v1.32h1v.4h-1v1.69a7.73,7.73,0,0,0,1,.06h3.72v.44h-4a2.85,2.85,0,0,1-2.34-.84,3.57,3.57,0,0,1-.91,1.09v-.5a2.8,2.8,0,0,0,.53-2V10h.56v1.07a6,6,0,0,1-.06.93,2.07,2.07,0,0,0,.88.72V9.45H6.39V9H8V7.8Zm4.78,4.25c-.68,0-1-.3-1-1V8.86h1.41c.44,0,.66-.2.66-.59v-1H10.36V6.86h2.75V8.3c0,.68-.33,1-1.06,1h-1V11c0,.44.16.65.56.63h.72c.42,0,.61-.17.59-.56v-.28h.5v.34c0,.65-.3,1-1,.94Z"/></g></g></svg>