<svg id="outset" data-name="图层 1" xmlns="http://www.w3.org/2000/svg" viewBox="0 0 17 27"><defs><style>.cls-1{fill:#bcbcbc;}.cls-2{fill:#009688;}.cls-3{fill:#d8d8d8;}.cls-4{fill:#fff;}</style></defs><title>起点 副本 2</title><g id="ouset"><ellipse class="cls-1" cx="8.5" cy="26.22" rx="1.25" ry="0.78"/><ellipse class="cls-2" cx="8.5" cy="26.22" rx="1" ry="0.5"/><rect class="cls-2" x="7.7" y="14.22" width="1.6" height="12"/><circle class="cls-3" cx="8.5" cy="8.85" r="8.13"/><circle class="cls-2" cx="8.5" cy="8.85" r="7.5"/><g id="起"><path class="cls-4" d="M5.17,6.65V6.24H6.45v-1h.63v1H8.3v.41H7.08V7.87h1.4v.44H7.39V9.62h1V10h-1v1.68a7.58,7.58,0,0,0,1,.07h3.72v.43h-4a2.85,2.85,0,0,1-2.34-.84,3.46,3.46,0,0,1-.91,1.09V12a2.78,2.78,0,0,0,.53-2V8.84H6V9.9a6.08,6.08,0,0,1-.06.94,2.23,2.23,0,0,0,.88.72V8.31H4.89V7.87H6.45V6.65ZM10,10.9c-.68,0-1-.3-1-1V7.71h1.41c.44,0,.66-.19.66-.59v-1H8.86V5.71h2.75V7.15c0,.69-.33,1-1.06,1h-1V9.84c0,.44.16.64.56.62h.72c.42,0,.61-.16.59-.56V9.62H12V10c0,.65-.3,1-1,.94Z"/></g></g></svg>